# xmcd CD Database Entry
#
# Track frame offsets:
# 150
# 9027
# 15897
# 40515
# 51139
# 70002
# 83042
# 108755
# 116850
# 123807
# 131012
# 148730
# 168850
# 178475
# 197622
# 225060
#
# Disc length: 3196 seconds
#
# Revision: 3
# Processed by: cddbd v1.4b41PL1 Copyright (c) Steve Scherf et al.
# Submitted via: tcd 2.0b
#
DISCID=ba0c7a10
DTITLE=Robin Williams - A Night at The Met
DYEAR=1900
DGENRE=
TTITLE0=Opening
TTITLE1=Ballet
TTITLE2=Alcohol
TTITLE3=Marijuana
TTITLE4=Cocaine
TTITLE5=Cops
TTITLE6=Reagan
TTITLE7=Khadafi
TTITLE8=Spring
TTITLE9=Men's Parts
TTITLE10=Lust
TTITLE11=Dr. Roof
TTITLE12=Pregnancy
TTITLE13=Childbirth
TTITLE14=Childhood
TTITLE15=And The Future
EXTD=
EXTT0=
EXTT1=
EXTT2=
EXTT3=
EXTT4=
EXTT5=
EXTT6=
EXTT7=
EXTT8=
EXTT9=
EXTT10=
EXTT11=
EXTT12=
EXTT13=
EXTT14=
EXTT15=
PLAYORDER=
